<?xml version="1.0" encoding="UTF-8" standalone="no"?>
<!DOCTYPE svg PUBLIC "-//W3C//DTD SVG 1.1//EN" "http://www.w3.org/Graphics/SVG/1.1/DTD/svg11.dtd">
<svg xmlns="http://www.w3.org/2000/svg" version="1.1" viewBox="0.00 0.00 16.00 16.00">
<path fill="#000000" d="
  M 11.23 2.94
  L 12.22 3.23
  A 1.34 1.31 -4.0 0 1 13.03 3.92
  Q 14.84 7.55 13.85 11.51
  Q 13.76 11.85 13.43 11.97
  L 5.68 14.94
  A 2.63 2.62 -7.6 0 1 2.13 12.23
  L 2.73 6.18
  A 0.78 0.76 -10.2 0 1 3.18 5.55
  L 5.76 4.39
  A 0.45 0.43 81.9 0 0 6.01 4.04
  C 6.28 1.49 9.54 -0.62 10.67 2.41
  A 0.89 0.88 -1.3 0 0 11.23 2.94
  Z
  M 9.59 3.47
  A 0.53 0.53 0.0 0 0 9.82 2.57
  Q 8.52 1.38 7.51 2.71
  A 0.71 0.71 0.0 0 0 8.26 3.83
  L 9.59 3.47
  Z
  M 6.43 10.79
  L 12.48 8.48
  A 1.02 1.01 71.6 0 0 13.09 7.25
  L 12.36 4.78
  A 1.07 1.07 0.0 0 0 11.04 4.05
  L 5.68 5.60
  A 0.23 0.22 78.5 0 0 5.52 5.85
  L 6.26 10.69
  Q 6.28 10.84 6.43 10.79
  Z
  M 3.10 12.20
  Q 3.00 13.14 4.10 13.76
  A 0.61 0.61 0.0 0 0 5.01 13.21
  L 4.88 6.95
  A 0.55 0.55 0.0 0 0 3.81 6.81
  C 3.31 8.48 3.27 10.51 3.10 12.20
  Z
  M 5.78 12.41
  L 6.19 13.45
  A 0.25 0.25 0.0 0 0 6.52 13.59
  L 12.55 11.20
  A 0.86 0.64 -21.6 0 0 13.12 10.29
  L 12.99 9.97
  A 0.86 0.64 -21.6 0 0 11.96 9.69
  L 5.92 12.08
  A 0.25 0.25 0.0 0 0 5.78 12.41
  Z"
/>
</svg>
