<?xml version="1.0" encoding="UTF-8" standalone="no"?>
<!DOCTYPE svg PUBLIC "-//W3C//DTD SVG 1.1//EN" "http://www.w3.org/Graphics/SVG/1.1/DTD/svg11.dtd">
<svg xmlns="http://www.w3.org/2000/svg" version="1.1" viewBox="0.00 0.00 50.00 50.00">
<path fill="#000000" d="
  M 17.57 20.94
  Q 22.72 27.32 29.11 32.47
  Q 29.52 32.81 30.00 32.56
  C 31.82 31.63 34.61 29.12 36.98 30.55
  Q 41.08 33.03 45.06 35.68
  C 49.81 38.83 43.58 44.14 41.25 46.03
  C 37.75 48.87 29.15 43.96 26.08 41.71
  C 17.45 35.38 3.52 21.93 3.03 10.60
  Q 3.01 10.17 3.26 9.81
  Q 6.05 5.84 10.18 3.30
  A 2.63 2.62 -32.9 0 1 13.74 4.06
  Q 16.74 8.48 19.69 13.05
  C 20.90 14.91 18.35 18.15 17.46 20.00
  Q 17.22 20.50 17.57 20.94
  Z
  M 15.14 20.00
  L 17.94 14.93
  Q 18.22 14.42 17.90 13.95
  L 12.58 5.88
  Q 11.73 4.60 10.47 5.47
  Q 7.36 7.60 5.11 10.65
  A 1.23 1.22 -33.0 0 0 4.90 11.62
  C 7.59 24.23 24.90 41.15 36.72 44.80
  C 40.16 45.86 43.34 41.37 44.90 38.93
  A 0.81 0.81 0.0 0 0 44.66 37.81
  L 36.29 32.26
  A 1.45 1.44 -42.7 0 0 34.77 32.20
  L 29.90 34.93
  A 0.79 0.79 0.0 0 1 29.04 34.87
  Q 21.14 28.95 15.21 21.06
  Q 14.83 20.56 15.14 20.00
  Z"
/>
</svg>
